<svg width="512" height="512" viewBox="0 0 512 512" fill="none" xmlns="http://www.w3.org/2000/svg">
<path d="M308.217 107.509L281.469 121.209L253.234 107.509C253.234 107.509 248.182 106.913 244.318 108.7C238.85 111.229 235.402 112.87 231.241 116.444C228.476 118.819 227.794 120.483 226.486 123.89L225 130.442L225.594 134.612L227.378 139.675C241.049 155.162 253.532 171.841 260.962 175.713C268.392 179.585 307.92 177.5 325.157 176.904L419.074 128.357C434.528 120.018 442.442 118.586 454.738 108.402C459.294 104.628 461.766 102.369 465.734 97.9779C469.678 93.6153 471.636 90.3896 474.353 85.171C477.92 78.3208 478.235 77.2514 478.811 71.1727C479.263 66.4126 478.955 62.5621 477.325 58.068C475.462 52.9287 472.471 51.231 468.112 47.9415C462.038 43.3568 451.172 43.474 447.605 43.1762C444.039 42.8783 435.717 43.474 426.504 45.8567C417.29 48.2394 378.06 69.9814 378.06 69.9814C378.06 69.9814 302.57 40.1978 301.976 39.9C301.381 39.6021 295.569 37.0142 288.601 38.4108C281.634 39.8073 279.983 40.7935 273.147 44.6653C266.311 48.5372 256.206 54.7917 258.881 67.5987C261.556 80.4056 271.958 83.6818 308.217 107.509Z" stroke="black" stroke-width="16"/>
<path d="M416.323 399.094L448.94 371.695C461.117 361.258 457.203 341.253 441.982 336.034L418.062 327.771V272.104C418.062 266.451 413.279 261.667 407.625 261.667H386.75V244.271C386.75 238.617 381.966 233.833 376.312 233.833H313.687C307.599 233.833 303.25 238.617 303.25 244.271V261.667H282.375C276.286 261.667 271.937 266.451 271.937 272.104V327.771L247.583 336.034C232.362 341.253 228.448 361.258 240.625 371.695L273.242 399.094C262.805 421.273 242.365 435.625 211.052 435.625C208.008 435.625 205.833 438.234 205.833 440.844V451.281C205.833 454.326 208.008 456.5 211.052 456.5C237.581 456.5 260.63 449.107 279.331 427.797C281.94 444.323 296.292 456.5 313.687 456.5H376.312C393.273 456.5 407.625 444.323 410.234 427.797C428.935 449.542 451.984 456.5 478.948 456.5C481.557 456.5 484.167 454.326 484.167 451.281V440.844C484.167 438.234 481.557 435.625 478.948 435.625C447.635 435.625 426.76 421.708 416.323 399.094ZM320.646 251.229H369.354V261.667H320.646V251.229ZM292.812 282.542H397.187V320.378L351.523 304.721C349.349 303.852 347.174 303.852 345 303.852C342.391 303.852 340.216 303.852 338.042 304.721L292.812 320.378V282.542ZM390.229 421.708C390.229 429.536 383.706 435.625 376.312 435.625H313.687C305.859 435.625 299.771 429.536 299.771 421.708V393.875L254.542 355.604L345 324.292L435.458 355.604L390.229 393.875V421.708Z" fill="black"/>
<path d="M204.375 136.375H200.25V106.469C200.25 101.57 198.187 96.9297 194.578 93.3203L173.18 71.9219C169.57 68.3125 164.93 66.25 160.031 66.25H150.75V55.9375C150.75 48.2032 144.047 41.5 136.312 41.5H57.9375C49.9453 41.5 43.5 48.2032 43.5 55.9375V134.313C43.5 142.305 49.9453 148.75 57.9375 148.75H60C60 162.414 71.0859 173.5 84.75 173.5C98.414 173.5 109.5 162.414 109.5 148.75H142.5C142.5 162.414 153.586 173.5 167.25 173.5C180.914 173.5 192 162.414 192 148.75H204.375C206.437 148.75 208.5 146.945 208.5 144.625V140.5C208.5 138.438 206.437 136.375 204.375 136.375ZM84.75 161.125C77.7891 161.125 72.375 155.711 72.375 148.75C72.375 142.047 77.7891 136.375 84.75 136.375C91.4531 136.375 97.125 142.047 97.125 148.75C97.125 155.711 91.4531 161.125 84.75 161.125ZM138.375 136.375H105.891C101.766 129.156 93.7734 124 84.75 124C75.4687 124 67.4766 129.156 63.3516 136.375H57.9375C56.6484 136.375 55.875 135.602 55.875 134.313V55.9375C55.875 54.9063 56.6484 53.875 57.9375 53.875H136.312C137.344 53.875 138.375 54.9063 138.375 55.9375V136.375ZM150.75 78.625H160.031C161.578 78.625 163.125 79.3985 164.414 80.4297L183.234 99.25H150.75V78.625ZM167.25 161.125C160.289 161.125 154.875 155.711 154.875 148.75C154.875 142.047 160.289 136.375 167.25 136.375C173.953 136.375 179.625 142.047 179.625 148.75C179.625 155.711 173.953 161.125 167.25 161.125ZM187.875 135.344C183.234 128.641 175.758 124 167.25 124C160.805 124 155.133 126.578 150.75 130.445V111.625H187.875V135.344Z" fill="black"/>
<path d="M144.948 380.635C144.948 388.212 150.548 393.812 158.125 393.812C165.372 393.812 171.302 388.212 171.302 380.635C171.302 373.388 165.372 367.458 158.125 367.458C150.548 367.458 144.948 373.388 144.948 380.635ZM94.875 393.812C102.122 393.812 108.052 388.212 108.052 380.635C108.052 373.388 102.122 367.458 94.875 367.458C87.2982 367.458 81.6979 373.388 81.6979 380.635C81.6979 388.212 87.2982 393.812 94.875 393.812ZM200.292 308.82C200.292 287.737 176.902 272.583 154.501 272.583H98.1693C76.0976 272.583 52.7083 287.737 52.7083 308.82V384.259C52.7083 400.401 66.8737 413.908 85.3216 418.52L65.8854 437.956C64.5677 439.273 65.556 441.25 67.2031 441.25H83.0156C84.3333 441.25 85.3216 440.921 85.9805 440.262L105.746 420.167H146.924L166.69 440.262C167.349 440.921 168.337 441.25 169.655 441.25H185.467C187.115 441.25 188.103 439.273 186.785 437.956L167.349 418.52C185.797 413.908 200.292 400.401 200.292 384.259V308.82ZM69.1797 304.208C72.8034 295.643 85.3216 288.396 98.1693 288.396H154.501C167.678 288.396 180.197 295.643 183.491 304.208H69.1797ZM68.5208 346.375V320.021H118.594V346.375H68.5208ZM184.479 362.187V384.259C184.479 396.118 167.02 404.354 154.501 404.354H98.1693C85.3216 404.354 68.5208 396.118 68.5208 384.259V362.187H184.479ZM184.479 320.021V346.375H134.406V320.021H184.479Z" fill="black"/>
</svg>
